<svg width="24" height="24" viewBox="0 0 24 24" fill="none" xmlns="http://www.w3.org/2000/svg">
<rect width="24" height="24" fill="#E5E5E5"/>
<g clip-path="url(#clip0_20_256)">
<path d="M11.2034 2.87986C11.7007 2.01854 12.5198 1.39005 13.4804 1.13264C14.4411 0.875225 15.4647 1.00998 16.326 1.50726C17.1873 2.00454 17.8158 2.82361 18.0732 3.78429C18.3306 4.74496 18.1959 5.76854 17.6986 6.62986L10.9486 18.3212C10.6502 18.838 10.1588 19.2151 9.58238 19.3695C9.00597 19.524 8.39182 19.4431 7.87503 19.1448C7.35824 18.8464 6.98115 18.3549 6.8267 17.7785C6.67225 17.2021 6.75311 16.588 7.05148 16.0712L12.3015 6.97793C12.4009 6.80567 12.5647 6.67997 12.7569 6.62849C12.949 6.57701 13.1537 6.60396 13.326 6.70342C13.4983 6.80287 13.624 6.96669 13.6754 7.15882C13.7269 7.35096 13.7 7.55567 13.6005 7.72793L8.35051 16.8212C8.25106 16.9935 8.22411 17.1982 8.27559 17.3903C8.32707 17.5825 8.45277 17.7463 8.62503 17.8457C8.7973 17.9452 9.00201 17.9721 9.19415 17.9206C9.38628 17.8692 9.5501 17.7435 9.64955 17.5712L16.3996 5.87986C16.5473 5.62397 16.6432 5.34149 16.6817 5.04854C16.7203 4.7556 16.7008 4.45792 16.6243 4.17252C16.5479 3.88711 16.4159 3.61956 16.236 3.38515C16.0562 3.15073 15.8319 2.95404 15.576 2.8063C15.3201 2.65856 15.0376 2.56267 14.7447 2.52411C14.4517 2.48554 14.1541 2.50505 13.8687 2.58153C13.5832 2.658 13.3157 2.78994 13.0813 2.96981C12.8469 3.14969 12.6502 3.37397 12.5024 3.62986L5.75244 15.3212C5.25516 16.1825 5.1204 17.2061 5.37781 18.1668C5.63522 19.1274 6.26372 19.9465 7.12503 20.4438C7.98635 20.9411 9.00993 21.0758 9.9706 20.8184C10.9313 20.561 11.7503 19.9325 12.2476 19.0712L17.4976 9.97793C17.5971 9.80567 17.7609 9.67997 17.953 9.62849C18.1452 9.57701 18.3499 9.60396 18.5221 9.70342C18.6944 9.80287 18.8201 9.96669 18.8716 10.1588C18.9231 10.351 18.8961 10.5557 18.7967 10.7279L13.5467 19.8212C12.8505 21.027 11.7038 21.9069 10.3588 22.2673C9.01389 22.6277 7.58087 22.439 6.37503 21.7428C5.16919 21.0466 4.2893 19.8999 3.92892 18.555C3.56855 17.2101 3.75721 15.777 4.4534 14.5712L11.2034 2.87986Z" fill="black"/>
</g>
<defs>
<clipPath id="clip0_20_256">
<rect width="24" height="24" fill="white"/>
</clipPath>
</defs>
</svg>
