<svg width="28" height="28" viewBox="0 0 28 28" fill="none" xmlns="http://www.w3.org/2000/svg">
<rect width="28" height="28" fill="#E5E5E5"/>
<path d="M11.3521 3.25303C12.8337 2.07586 14.9104 2.0292 16.4376 3.11303L16.6254 3.25303L23.7292 8.93586C24.5109 9.54136 24.9904 10.4409 25.0721 11.4197L25.0837 11.6542V21.1147C25.0837 23.553 23.1576 25.5364 20.7437 25.6647H18.4221C17.3126 25.6425 16.4154 24.7792 16.3337 23.6942L16.3221 23.5297V20.1942C16.3221 19.8314 16.0526 19.5292 15.6921 19.4697L15.5871 19.458H12.4709C12.0987 19.4697 11.7954 19.738 11.7487 20.088L11.7371 20.1942V23.5192C11.7371 23.588 11.7242 23.6697 11.7137 23.728L11.7021 23.7525L11.6892 23.833C11.5504 24.8259 10.7337 25.583 9.71873 25.6542L9.56706 25.6647H7.47873C5.04039 25.6647 3.04539 23.7525 2.91706 21.348V11.6542C2.92756 10.6614 3.36039 9.7397 4.08373 9.09803L11.3521 3.25303ZM15.6104 4.5247C14.7237 3.81303 13.4637 3.7792 12.5304 4.39636L12.3542 4.5247L5.26089 10.2425C4.85373 10.5447 4.60873 10.9997 4.55039 11.478L4.53756 11.6647V21.1147C4.53756 22.6664 5.75089 23.938 7.29206 24.0314H9.56706C9.82373 24.0314 10.0454 23.8575 10.0792 23.6125L10.1037 23.4025L10.1154 23.343V20.1942C10.1154 18.9459 11.0721 17.9309 12.2971 17.8364H15.5871C16.8342 17.8364 17.8492 18.7942 17.9437 20.0192V23.5297C17.9437 23.7747 18.1187 23.9859 18.3521 24.0314H20.5209C22.0842 24.0314 23.3559 22.8309 23.4492 21.3014L23.4621 21.1147V11.6647C23.4492 11.1642 23.2404 10.6964 22.8787 10.3475L22.7271 10.218L15.6104 4.5247Z" fill="#5C616F"/>
</svg>
