<svg width="28" height="28" viewBox="0 0 28 28" fill="none" xmlns="http://www.w3.org/2000/svg">
<rect width="28" height="28" fill="#E5E5E5"/>
<path d="M11.4684 17.291C13.1528 17.1425 14.8469 17.1425 16.5313 17.291L17.0691 17.3365C17.8047 17.4091 18.5352 17.5226 19.2539 17.6761C21.086 18.0535 22.4164 18.723 23.0052 19.9649C23.4427 20.8888 23.4427 21.9615 23.005 22.8858C22.4147 24.1309 21.0672 24.806 19.2676 25.161L18.7224 25.2742C17.9936 25.4141 17.2587 25.5095 16.5288 25.5595C15.159 25.6761 13.7828 25.6973 12.4554 25.6243C12.309 25.6243 12.2108 25.6238 12.1243 25.6218L11.956 25.6155C11.7514 25.6051 11.5639 25.5836 11.4852 25.5606C10.5617 25.4978 9.64424 25.3641 8.76416 25.1656L8.46563 25.1033C6.79912 24.733 5.56495 24.0649 4.99407 22.8845C4.77786 22.4265 4.66603 21.9258 4.66668 21.4232C4.6648 20.9169 4.77754 20.4169 5.00179 19.9499C5.59634 18.7557 6.99322 18.0371 8.73928 17.6774C9.64392 17.4836 10.5611 17.354 11.4684 17.291ZM16.3842 18.9735C14.7977 18.8336 13.202 18.8336 11.6001 18.9747C10.7562 19.0334 9.91753 19.1519 9.08374 19.3306C7.79241 19.5966 6.80509 20.1045 6.51139 20.6942C6.40324 20.9195 6.34753 21.1666 6.34845 21.4211C6.34814 21.677 6.40459 21.9298 6.51029 22.1538C6.81235 22.7784 7.744 23.2451 9.10906 23.5127L9.52033 23.5997C10.2091 23.7363 10.9185 23.8304 11.7069 23.8899C11.8065 23.9099 11.9139 23.9222 12.0414 23.9287L12.5006 23.9366C13.7958 24.0067 15.0943 23.9866 16.4005 23.8755C17.2423 23.8178 18.0787 23.6964 18.9228 23.5081L19.1852 23.4525C20.384 23.1807 21.2134 22.7358 21.4864 22.1601C21.7066 21.6951 21.7066 21.1552 21.4866 20.6906C21.1945 20.0744 20.2709 19.6097 18.9101 19.3293C18.0823 19.1526 17.2432 19.0341 16.399 18.9747L16.3842 18.9735ZM14.005 2.33334C17.428 2.33334 20.2029 5.12009 20.2029 8.55771C20.2029 11.9953 17.428 14.7821 14.005 14.7821C10.582 14.7821 7.80706 11.9953 7.80706 8.55771C7.80706 5.12009 10.582 2.33334 14.005 2.33334ZM14.005 4.02229C11.5108 4.02229 9.48883 6.05287 9.48883 8.55771C9.48883 11.0626 11.5108 13.0931 14.005 13.0931C16.4992 13.0931 18.5212 11.0626 18.5212 8.55771C18.5212 6.05287 16.4992 4.02229 14.005 4.02229Z" fill="#5C616F"/>
</svg>
