<svg width="28" height="28" viewBox="0 0 28 28" fill="none" xmlns="http://www.w3.org/2000/svg">
<rect width="28" height="28" fill="#E5E5E5"/>
<path d="M11.6237 22.4326C12.207 22.3092 15.7608 22.3092 16.3441 22.4326C16.8427 22.5477 17.3818 22.8168 17.3818 23.4043C17.3528 23.9636 17.0247 24.4595 16.5713 24.7744C15.9835 25.2327 15.2936 25.5229 14.5723 25.6275C14.1735 25.6792 13.7816 25.6803 13.3966 25.6275C12.6742 25.5229 11.9843 25.2327 11.3976 24.7732C10.9431 24.4595 10.615 23.9636 10.586 23.4043C10.586 22.8168 11.1251 22.5477 11.6237 22.4326ZM14.0528 2.33334C16.4796 2.33334 18.9586 3.48487 20.4312 5.39545C21.3866 6.6257 21.8249 7.85477 21.8249 9.76536V10.2624C21.8249 11.7276 22.2122 12.5913 23.0644 13.5865C23.7103 14.3197 23.9167 15.2609 23.9167 16.282C23.9167 17.302 23.5816 18.2702 22.9102 19.0563C22.0313 19.9986 20.7918 20.6002 19.5268 20.7048C17.6936 20.8611 15.8593 20.9927 14.0006 20.9927C12.1407 20.9927 10.3076 20.914 8.47439 20.7048C7.20821 20.6002 5.9687 19.9986 5.09095 19.0563C4.4196 18.2702 4.08334 17.302 4.08334 16.282C4.08334 15.2609 4.29089 14.3197 4.93558 13.5865C5.81448 12.5913 6.17625 11.7276 6.17625 10.2624V9.76536C6.17625 7.80307 6.66556 6.51995 7.67317 5.26385C9.17125 3.43199 11.5726 2.33334 13.9484 2.33334H14.0528Z" fill="#F26333"/>
</svg>
