<svg width="28" height="28" viewBox="0 0 28 28" fill="none" xmlns="http://www.w3.org/2000/svg">
<rect width="28" height="28" fill="#E5E5E5"/>
<path d="M17.0426 22.9724C17.3886 23.2542 17.4435 23.7665 17.1651 24.1168C16.9593 24.3757 16.7215 24.6076 16.4695 24.7975C15.6206 25.4636 14.5414 25.7657 13.4695 25.638C12.3968 25.5102 11.4182 24.9623 10.7504 24.1138C10.4736 23.7622 10.5309 23.2501 10.8782 22.97C11.2255 22.6899 11.7314 22.7478 12.0082 23.0994C12.4109 23.6111 13.0045 23.9435 13.6575 24.0213C14.3114 24.0992 14.9692 23.9151 15.4963 23.5016C15.6518 23.3844 15.7914 23.2482 15.9121 23.0964C16.1905 22.7461 16.6966 22.6906 17.0426 22.9724ZM6.01082 10.4997L6.02519 9.80457C6.03545 9.50724 6.05135 9.23124 6.07467 8.96113C6.42431 5.18533 10.0283 2.33334 13.9589 2.33334H14.0421C17.9707 2.33334 21.5757 5.18334 21.9373 8.96627C21.958 9.20674 21.9669 9.42035 21.9696 9.72075L21.9707 10.6398C21.9715 10.7235 21.973 10.7971 21.9751 10.8658L21.9859 11.0947L22.0379 11.313C22.202 11.921 22.4905 12.4895 22.8856 12.9829L23.0614 13.1897L23.1334 13.2821C23.6073 13.9903 23.878 14.8144 23.9167 15.7019L23.9155 16.1724C23.8825 17.2235 23.4966 18.2386 22.7895 19.0846C21.853 20.0784 20.5839 20.6959 19.2352 20.82C15.7523 21.1982 12.2383 21.1982 8.76513 20.821C7.40713 20.6904 6.14186 20.0748 5.16441 19.0427C4.44363 18.164 4.06049 17.0576 4.0844 15.9395L4.08538 15.6616C4.12703 14.8115 4.39605 13.9882 4.86427 13.2769L4.94263 13.1761C5.48946 12.5766 5.86332 11.8429 6.02553 11.0519L6.00798 11.123L6.01082 10.4997ZM14.0421 3.96125H13.9589C10.8109 3.96125 7.94272 6.23102 7.6763 9.10792C7.66266 9.266 7.65178 9.4291 7.64328 9.60074L7.62455 10.1449L7.61694 11.2174L7.60015 11.3828C7.37852 12.4635 6.86851 13.4644 6.12419 14.2804L6.18166 14.2138L6.07886 14.3839C5.88629 14.7309 5.76206 15.1078 5.71297 15.4796L5.69259 15.7019L5.6924 15.957C5.67664 16.7 5.92769 17.4249 6.36265 17.9586C7.03363 18.6649 7.94131 19.1065 8.92697 19.2014C12.2958 19.5672 15.6948 19.5672 19.0766 19.2001C20.0516 19.1103 20.9586 18.669 21.5931 17.9978C22.0733 17.4219 22.3271 16.6946 22.3085 15.9292L22.3094 15.7385C22.2848 15.1883 22.1096 14.6548 21.8019 14.1951L21.8197 14.2247L21.6589 14.036C21.1042 13.3515 20.7013 12.5574 20.477 11.7063L20.4013 11.3846L20.3863 11.2764C20.3749 11.1185 20.3683 10.9781 20.3648 10.8093L20.3616 9.75392C20.3594 9.48553 20.3522 9.30486 20.3359 9.11549C20.0601 6.23089 17.1892 3.96125 14.0421 3.96125Z" fill="#5C616F"/>
</svg>
