<svg width="28" height="28" viewBox="0 0 28 28" fill="none" xmlns="http://www.w3.org/2000/svg">
<rect width="28" height="28" fill="#E5E5E5"/>
<path d="M18.8895 2.33334C22.4933 2.33334 24.5 4.41001 24.5 7.96834V20.02C24.5 23.6367 22.4933 25.6667 18.8895 25.6667H9.11167C5.565 25.6667 3.5 23.6367 3.5 20.02V7.96834C3.5 4.41001 5.565 2.33334 9.11167 2.33334H18.8895ZM9.42667 18.3633C9.07667 18.3283 8.73833 18.4917 8.55167 18.795C8.365 19.0867 8.365 19.4717 8.55167 19.775C8.73833 20.0667 9.07667 20.2417 9.42667 20.195H18.5733C19.0388 20.1483 19.39 19.7505 19.39 19.285C19.39 18.8067 19.0388 18.41 18.5733 18.3633H9.42667ZM18.5733 13.0422H9.42667C8.92383 13.0422 8.51667 13.4517 8.51667 13.9533C8.51667 14.455 8.92383 14.8633 9.42667 14.8633H18.5733C19.075 14.8633 19.4833 14.455 19.4833 13.9533C19.4833 13.4517 19.075 13.0422 18.5733 13.0422ZM12.9138 7.75834H9.42667V7.77001C8.92383 7.77001 8.51667 8.17834 8.51667 8.68001C8.51667 9.18168 8.92383 9.59001 9.42667 9.59001H12.9138C13.4167 9.59001 13.825 9.18168 13.825 8.66718C13.825 8.16668 13.4167 7.75834 12.9138 7.75834Z" fill="#F26333"/>
</svg>
