<svg width="28" height="28" viewBox="0 0 28 28" fill="none" xmlns="http://www.w3.org/2000/svg">
<rect width="28" height="28" fill="#E5E5E5"/>
<path d="M18.5065 2.33334C22.2351 2.33334 24.4646 4.57334 24.4996 8.32068V19.5895C24.4996 23.3893 22.2643 25.6667 18.5065 25.6667H9.49398C9.01331 25.6667 8.55715 25.6293 8.12781 25.5558L7.87348 25.508C5.10732 24.9328 3.49965 22.8142 3.49965 19.5895V8.41051C3.49965 8.02084 3.52298 7.64751 3.56965 7.29051C3.97682 4.15801 6.12932 2.33334 9.49398 2.33334H18.5065ZM18.496 4.03318H9.49398C6.62865 4.03318 5.17615 5.50668 5.17615 8.41051V19.5895C5.17615 22.4933 6.62865 23.9668 9.49398 23.9668H18.496C21.3601 23.9668 22.8033 22.4933 22.8033 19.5895V8.41051C22.8033 5.50668 21.3601 4.03318 18.496 4.03318ZM18.1915 18.095C18.6511 18.095 19.0233 18.473 19.0233 18.9397C19.0233 19.4063 18.6511 19.7843 18.1915 19.7843H9.77865C9.31898 19.7843 8.94565 19.4063 8.94565 18.9397C8.94565 18.473 9.31898 18.095 9.77865 18.095H18.1915ZM18.1915 13.1495C18.5123 13.1145 18.8261 13.2685 18.9976 13.545C19.1691 13.8238 19.1691 14.1762 18.9976 14.455C18.8261 14.7315 18.5123 14.8855 18.1915 14.8505H9.77865C9.35165 14.8015 9.02848 14.4363 9.02848 14C9.02848 13.5637 9.35165 13.1973 9.77865 13.1495H18.1915ZM12.9893 8.21568C13.4163 8.26351 13.7395 8.62984 13.7395 9.06618C13.7395 9.50134 13.4163 9.86768 12.9893 9.91551H9.78915C9.36098 9.86768 9.03781 9.50134 9.03781 9.06618C9.03781 8.62984 9.36098 8.26351 9.78915 8.21568H12.9893Z" fill="#5C616F"/>
</svg>
