<svg width="28" height="28" viewBox="0 0 28 28" fill="none" xmlns="http://www.w3.org/2000/svg">
<rect width="28" height="28" fill="#E5E5E5"/>
<path d="M20.5575 20.5967C21.0084 20.1488 21.7313 20.1488 22.1822 20.5967L25.1627 23.0025H25.2144C25.8174 23.612 25.8174 24.6001 25.2144 25.2096C24.6114 25.819 23.6338 25.819 23.0308 25.2096L20.5575 22.3749L20.4636 22.269C20.2888 22.0477 20.1922 21.7718 20.1922 21.4858C20.1922 21.1521 20.3237 20.8322 20.5575 20.5967ZM12.3406 2.33334C14.9947 2.33334 17.54 3.39902 19.4168 5.29593C21.2935 7.19285 22.3478 9.76562 22.3478 12.4483C22.3478 18.0346 17.8674 22.5632 12.3406 22.5632C6.81373 22.5632 2.33333 18.0346 2.33333 12.4483C2.33333 6.86194 6.81373 2.33334 12.3406 2.33334Z" fill="#F26333"/>
</svg>
