<svg width="16" height="16" viewBox="0 0 16 16" fill="none" xmlns="http://www.w3.org/2000/svg">
<rect width="16" height="16" fill="#E5E5E5"/>
<g clip-path="url(#clip0_20_256)">
<path d="M8.00078 11.1456C7.5279 11.5055 6.55159 12.3956 6.55159 13.6083C6.55159 14.4089 7.20134 15.0602 8.00003 15.0602C8.79871 15.0602 9.44846 14.4089 9.44846 13.6083C9.44846 12.4598 8.47159 11.528 8.00078 11.1456Z" fill="black"/>
<path d="M11.3947 2.78475C11.2191 2.58609 10.9159 2.57406 10.7246 2.75262L8.51881 4.81134V0.499933C8.51881 0.139026 8.08365 -0.130631 7.75778 0.0664945C7.69609 0.103807 6.23021 0.998933 4.74906 2.62447C2.94815 4.60097 1.72162 7.0075 1.72162 9.70638C1.72162 13.1767 4.53809 16 7.99996 16C6.68434 16 5.61403 14.927 5.61403 13.6083C5.61403 11.4773 7.68303 10.2154 7.77109 10.1627C7.92546 10.0704 8.11874 10.0748 8.26887 10.1737C8.35531 10.2307 10.3859 11.5926 10.3859 13.6082C10.3859 14.927 9.31559 16 7.99996 16C11.4618 16 14.2783 13.1767 14.2783 9.70638C14.2783 7.08594 13.122 4.73722 11.3947 2.78475Z" fill="black"/>
</g>
<defs>
<clipPath id="clip0_20_256">
<rect width="16" height="16" fill="white"/>
</clipPath>
</defs>
</svg>
