<svg width="24" height="24" viewBox="0 0 24 24" fill="none" xmlns="http://www.w3.org/2000/svg">
<rect width="24" height="24" fill="#E5E5E5"/>
<path d="M18.6596 19.1818H4.34513C4.08181 19.1818 3.86834 19.3953 3.86785 19.6586L3.86597 21.0503C3.86552 21.5709 4.06776 22.0604 4.43552 22.4286C4.80372 22.7973 5.29264 23 5.81329 23H17.1895C18.2634 23 19.1369 22.1265 19.1369 21.0527V19.6591C19.1369 19.3953 18.9234 19.1818 18.6596 19.1818Z" fill="black"/>
<path d="M16.75 3.90911C16.4578 3.90911 16.1576 3.93846 15.8397 3.99766C14.7477 2.72428 13.1826 2 11.5 2C8.34183 2 5.77275 4.56909 5.77275 7.72728C5.77275 7.9906 5.55882 8.20457 5.29546 8.20457C5.03214 8.20457 4.81817 7.99064 4.81817 7.72728C4.81817 6.69395 5.0559 5.69418 5.52477 4.75598C5.60822 4.58913 5.58674 4.38917 5.47023 4.24375C5.35371 4.09927 5.16306 4.03493 4.98225 4.07923C2.63737 4.66417 1 6.75315 1 9.1591C1 11.1427 2.11861 12.946 3.87482 13.8377L3.86968 17.7495C3.86968 17.8758 3.91957 17.9975 4.00906 18.0874C4.09899 18.1769 4.22021 18.2273 4.34697 18.2273H18.6591C18.9229 18.2273 19.1364 18.0138 19.1364 17.75V13.8306C20.8861 12.9367 22 11.1362 22 9.15905C22 6.26423 19.6449 3.90911 16.75 3.90911ZM7.98477 15.2555C7.89573 15.3282 7.78857 15.3637 7.6823 15.3637C7.54435 15.3637 7.4073 15.304 7.31271 15.1893C7.15517 14.9968 5.77275 13.2761 5.77275 12.0227C5.77275 11.7589 5.98622 11.5454 6.25003 11.5454C6.51385 11.5454 6.72732 11.7589 6.72732 12.0227C6.72732 12.7135 7.53925 13.9598 8.05099 14.5834C8.2178 14.7876 8.18845 15.0882 7.98477 15.2555ZM11.9773 14.8864C11.9773 15.1502 11.7638 15.3637 11.5 15.3637C11.2362 15.3637 11.0227 15.1502 11.0227 14.8864V12.0227C11.0227 11.7589 11.2362 11.5454 11.5 11.5454C11.7638 11.5454 11.9773 11.7589 11.9773 12.0227V14.8864H11.9773ZM15.6873 15.1893C15.5927 15.304 15.4561 15.3637 15.3182 15.3637C15.2115 15.3637 15.1043 15.3282 15.0157 15.2555C14.812 15.0882 14.7822 14.7876 14.9491 14.5839C15.4608 13.9589 16.2727 12.7112 16.2727 12.0227C16.2727 11.7589 16.4862 11.5454 16.75 11.5454C17.0138 11.5454 17.2273 11.7589 17.2273 12.0227C17.2273 13.276 15.8449 14.9968 15.6873 15.1893Z" fill="black"/>
</svg>
