<svg width="16" height="16" viewBox="0 0 16 16" fill="none" xmlns="http://www.w3.org/2000/svg">
<path d="M15.0532 7.84923C14.8148 7.61104 14.4977 7.47617 14.1608 7.46985L13.8217 7.46346L13.7331 7.13601C13.2096 5.19997 11.7962 3.68148 10.0066 2.9726C10.2211 3.353 10.3437 3.79179 10.3437 4.25874C10.3437 5.70723 9.16524 6.88568 7.71676 6.88568C6.26827 6.88568 5.08982 5.70723 5.08982 4.25874H5.99354C5.99354 5.20892 6.76658 5.98196 7.71676 5.98196C8.66693 5.98196 9.43997 5.20892 9.43997 4.25874C9.43997 3.30857 8.66693 2.53553 7.71676 2.53553C7.62891 2.53553 7.5414 2.53739 7.45426 2.54104H7.37265C6.52484 2.53866 5.83584 1.84834 5.83584 1.00001H4.93212C4.93212 1.58376 5.13805 2.12018 5.48074 2.54104H5.04322C4.19342 2.54104 3.50207 1.84969 3.50207 0.999893H2.59835C2.59835 2.18229 3.44212 3.17117 4.55912 3.39644C3.18743 4.2034 2.13595 5.52525 1.70038 7.13601L1.61185 7.46346L1.27268 7.46985C0.935773 7.47617 0.618748 7.61104 0.379955 7.84956C0.135046 8.09471 0 8.42092 0 8.76771C0 9.47008 0.570971 10.0523 1.27274 10.0656L1.61188 10.072L1.70041 10.3994C2.43291 13.1081 4.90691 14.9999 7.71676 14.9999C10.5266 14.9999 13.0006 13.1081 13.7331 10.3994L13.8216 10.072L14.1608 10.0656C14.8626 10.0523 15.4335 9.47008 15.4335 8.76771C15.4335 8.42092 15.2985 8.09471 15.0532 7.84923ZM4.79939 8.25599C4.4051 8.25599 4.08431 8.57678 4.08431 8.97108H3.18059C3.18059 8.07847 3.90679 7.35227 4.79939 7.35227C5.692 7.35227 6.4182 8.07844 6.4182 8.97108H5.51448C5.51451 8.57678 5.19372 8.25599 4.79939 8.25599ZM7.71679 12.9066C6.73571 12.9066 5.81602 12.3809 5.31662 11.5346L6.09494 11.0753C6.43257 11.6475 7.05403 12.0029 7.71679 12.0029C8.37955 12.0029 9.00101 11.6475 9.33864 11.0753L10.117 11.5346C9.61755 12.3809 8.69787 12.9066 7.71679 12.9066ZM11.3492 8.97108C11.3492 8.57678 11.0284 8.25599 10.6342 8.25599C10.2399 8.25599 9.91907 8.57678 9.91907 8.97108H9.01534C9.01534 8.07847 9.74154 7.35227 10.6342 7.35227C11.5268 7.35227 12.253 8.07844 12.253 8.97108H11.3492Z" fill="#0BB8E4"/>
</svg>
