<svg width="20" height="20" viewBox="0 0 20 20" fill="none" xmlns="http://www.w3.org/2000/svg">
<rect width="20" height="20" fill="#E5E5E5"/>
<g clip-path="url(#clip0_20_256)">
<path d="M7.06068 19.375C6.76401 19.375 6.46735 19.3175 6.18818 19.2025C5.60735 18.9617 5.14735 18.4858 4.92652 17.8967L4.33318 16.315C4.22068 16.015 3.98485 15.7792 3.68568 15.6667L2.10318 15.0733C1.51485 14.8525 1.03901 14.3925 0.798181 13.8117C0.557348 13.2308 0.568181 12.5683 0.829014 11.9958L1.52818 10.4583C1.65985 10.1675 1.65985 9.83333 1.52818 9.54167L0.829014 8.00333C0.568181 7.43167 0.557348 6.76917 0.797348 6.18833C1.03735 5.6075 1.51401 5.1475 2.10318 4.92667L3.68485 4.33333C3.98485 4.22083 4.22068 3.985 4.33318 3.685L4.92652 2.1025C5.14735 1.51417 5.60735 1.03833 6.18818 0.797499C6.76902 0.557499 7.43151 0.567499 8.00401 0.828332L9.54152 1.5275C9.83235 1.65917 10.1657 1.65917 10.4582 1.5275L11.9965 0.828332C12.5682 0.567499 13.2307 0.556665 13.8115 0.797499C14.3923 1.03833 14.8523 1.51417 15.0732 2.10333L15.6665 3.685C15.779 3.985 16.0148 4.22083 16.314 4.33333L17.8965 4.92667C18.4848 5.1475 18.9607 5.6075 19.2015 6.18833C19.4424 6.76917 19.4315 7.43167 19.1707 8.00417L18.4715 9.54167C18.3398 9.8325 18.3398 10.1667 18.4715 10.4583L19.1698 11.9967C19.4307 12.5692 19.4415 13.2308 19.2007 13.8117C18.9599 14.3925 18.484 14.8525 17.8948 15.0733L16.3148 15.6667C16.0148 15.7792 15.779 16.015 15.6665 16.3142L15.0732 17.8967C14.8523 18.485 14.3923 18.9608 13.8115 19.2017C13.2298 19.4417 12.5682 19.4317 11.9957 19.1708L10.4582 18.4717C10.1665 18.34 9.83318 18.3392 9.54152 18.4717L8.00318 19.17C7.70568 19.3067 7.38235 19.375 7.06068 19.375ZM10.7007 2.06083H10.7082H10.7007Z" fill="#E5F9FE"/>
<path d="M7.08333 7.70834C6.27917 7.70834 5.625 7.05417 5.625 6.25001C5.625 5.44584 6.27917 4.79167 7.08333 4.79167C7.8875 4.79167 8.54167 5.44584 8.54167 6.25001C8.54167 7.05417 7.8875 7.70834 7.08333 7.70834Z" fill="white"/>
<path d="M12.9171 15.1392C12.1512 15.1392 11.5279 14.5158 11.5279 13.75C11.5279 12.9842 12.1512 12.3608 12.9171 12.3608C13.6829 12.3608 14.3062 12.9842 14.3062 13.75C14.3062 14.5158 13.6829 15.1392 12.9171 15.1392Z" fill="white"/>
<path d="M6.86502 19.9994C6.54835 19.9994 6.23169 19.9378 5.93502 19.8153C5.31502 19.5586 4.82419 19.0511 4.58919 18.4228L3.95585 16.7361C3.83585 16.4161 3.58419 16.1644 3.26502 16.0444L1.57752 15.4111C0.950021 15.1761 0.442521 14.6853 0.185855 14.0653C-0.0708118 13.4453 -0.0591451 12.7394 0.219188 12.1286L0.965021 10.4886C1.10585 10.1778 1.10585 9.82195 0.965021 9.51112L0.218355 7.87112C-0.0591451 7.26112 -0.0716451 6.55445 0.185022 5.93529C0.441688 5.31612 0.950021 4.82446 1.57835 4.58946L3.26502 3.95612C3.58502 3.83612 3.83669 3.58446 3.95669 3.26529L4.59002 1.57779C4.82502 0.950294 5.31585 0.442795 5.93585 0.186129C6.55585 -0.0705376 7.26169 -0.0588709 7.87252 0.219462L9.51252 0.965294C9.82335 1.10529 10.1784 1.10529 10.49 0.965294L12.1309 0.219462C12.7409 -0.0588709 13.4475 -0.0697043 14.0667 0.186129C14.6867 0.442795 15.1775 0.950294 15.4125 1.57863L16.0459 3.26529C16.1659 3.58529 16.4175 3.83696 16.7367 3.95696L18.4242 4.59029C19.0517 4.82529 19.5592 5.31612 19.8159 5.93612C20.0725 6.55612 20.0609 7.26195 19.7825 7.87279L19.0367 9.51278C18.8959 9.82362 18.8959 10.1795 19.0367 10.4903L19.7817 12.1311C20.0592 12.7411 20.0717 13.4478 19.815 14.0669C19.5584 14.6861 19.0509 15.1778 18.4225 15.4128L16.7359 16.0461C16.4159 16.1661 16.1642 16.4178 16.0442 16.7369L15.4109 18.4244C15.1759 19.0519 14.685 19.5594 14.065 19.8161C13.445 20.0728 12.7392 20.0611 12.1284 19.7828L10.4884 19.0369C10.1775 18.8961 9.82169 18.8961 9.51085 19.0369L7.87002 19.7819C7.55252 19.9269 7.20835 19.9994 6.86502 19.9994ZM6.86585 1.25029C6.71252 1.25029 6.56002 1.28029 6.41335 1.34113C6.10752 1.46696 5.87502 1.70779 5.75919 2.01696L5.12585 3.70446C4.87919 4.36112 4.36085 4.87946 3.70335 5.12612L2.01669 5.75945C1.70752 5.87529 1.46669 6.10779 1.34002 6.41362C1.21419 6.71862 1.21919 7.05279 1.35585 7.35362L2.10169 8.99445C2.39252 9.63362 2.39252 10.3661 2.10169 11.0053L1.35585 12.6461C1.21919 12.9469 1.21335 13.2819 1.34002 13.5869C1.46669 13.8928 1.70669 14.1253 2.01669 14.2411L3.70419 14.8744C4.36169 15.1211 4.88002 15.6394 5.12669 16.2969L5.76002 17.9836C5.87585 18.2936 6.10835 18.5336 6.41419 18.6603C6.71919 18.7861 7.05335 18.7819 7.35419 18.6444L8.99502 17.8986C9.63419 17.6078 10.3667 17.6086 11.0059 17.8986L12.6467 18.6444C12.9484 18.7819 13.2825 18.7861 13.5875 18.6603C13.8934 18.5336 14.1259 18.2936 14.2417 17.9836L14.875 16.2961C15.1217 15.6386 15.64 15.1203 16.2975 14.8736L17.9842 14.2403C18.2942 14.1244 18.5342 13.8919 18.6609 13.5861C18.7875 13.2811 18.7817 12.9461 18.645 12.6461L17.8992 11.0053C17.6084 10.3661 17.6084 9.63362 17.8992 8.99445L18.645 7.35362C18.7817 7.05279 18.7875 6.71779 18.6609 6.41279C18.5342 6.10695 18.2942 5.87445 17.9842 5.75862L16.2967 5.12529C15.6392 4.87862 15.1209 4.36029 14.8742 3.70279L14.2409 2.01613C14.125 1.70613 13.8925 1.46613 13.5867 1.33946C13.2817 1.21363 12.9475 1.21863 12.6467 1.35529L11.0059 2.10113C10.3667 2.39113 9.63419 2.39113 8.99502 2.10113L7.35419 1.35613C7.19669 1.28529 7.03169 1.25029 6.86585 1.25029ZM10.7467 1.53279H10.755H10.7467Z" fill="#0BB8E4"/>
<path d="M7.08333 8.33334C5.935 8.33334 5 7.39834 5 6.25001C5 5.10167 5.935 4.16667 7.08333 4.16667C8.23167 4.16667 9.16667 5.10167 9.16667 6.25001C9.16667 7.39834 8.23167 8.33334 7.08333 8.33334ZM7.08333 5.41667C6.62417 5.41667 6.25 5.79084 6.25 6.25001C6.25 6.70917 6.62417 7.08334 7.08333 7.08334C7.5425 7.08334 7.91667 6.70917 7.91667 6.25001C7.91667 5.79084 7.5425 5.41667 7.08333 5.41667Z" fill="#0BB8E4"/>
<path d="M12.9169 15.8334C11.7686 15.8334 10.8336 14.8984 10.8336 13.75C10.8336 12.6017 11.7686 11.6667 12.9169 11.6667C14.0653 11.6667 15.0003 12.6017 15.0003 13.75C15.0003 14.8984 14.0653 15.8334 12.9169 15.8334ZM12.9169 12.9167C12.4578 12.9167 12.0836 13.2908 12.0836 13.75C12.0836 14.2092 12.4578 14.5833 12.9169 14.5833C13.3761 14.5833 13.7503 14.2092 13.7503 13.75C13.7503 13.2908 13.3761 12.9167 12.9169 12.9167Z" fill="#0BB8E4"/>
<path d="M7.29175 15C7.17925 15 7.06592 14.97 6.96342 14.9067C6.66925 14.725 6.57925 14.34 6.76092 14.0467L12.1776 5.29667C12.3593 5.00251 12.7459 4.91251 13.0376 5.09417C13.3318 5.27584 13.4218 5.66084 13.2401 5.95417L7.82342 14.7042C7.70509 14.895 7.50009 15 7.29175 15Z" fill="#0BB8E4"/>
</g>
<defs>
<clipPath id="clip0_20_256">
<rect width="20" height="20" fill="white"/>
</clipPath>
</defs>
</svg>
