<svg width="16" height="16" viewBox="0 0 16 16" fill="none" xmlns="http://www.w3.org/2000/svg">
<rect width="16" height="16" fill="#E5E5E5"/>
<path d="M14.613 3.18716H6.17244C5.94039 2.49795 5.28849 2 4.52203 2C3.75556 2 3.10367 2.49795 2.87162 3.18716H1.55412C1.24806 3.18716 0.999939 3.43528 0.999939 3.74133C0.999939 4.04739 1.24806 4.29551 1.55412 4.29551H2.87165C3.1037 4.98472 3.7556 5.48267 4.52206 5.48267C5.28853 5.48267 5.94042 4.98472 6.17248 4.29551H14.613C14.9191 4.29551 15.1672 4.04739 15.1672 3.74133C15.1672 3.43528 14.9191 3.18716 14.613 3.18716Z" fill="#363D4E"/>
<path d="M14.613 7.93583H13.2954C13.0634 7.24662 12.4114 6.74867 11.645 6.74867C10.8786 6.74867 10.2267 7.24662 9.99463 7.93583H1.55412C1.24806 7.93583 0.999939 8.18395 0.999939 8.49001C0.999939 8.79606 1.24806 9.04418 1.55412 9.04418H9.99463C10.2267 9.73339 10.8786 10.2313 11.645 10.2313C12.4115 10.2313 13.0634 9.73339 13.2955 9.04418H14.613C14.9191 9.04418 15.1672 8.79606 15.1672 8.49001C15.1672 8.18395 14.9191 7.93583 14.613 7.93583Z" fill="#363D4E"/>
<path d="M14.613 12.6845H8.54679C8.31474 11.9953 7.66284 11.4973 6.89638 11.4973C6.12992 11.4973 5.47802 11.9953 5.24597 12.6845H1.55412C1.24806 12.6845 0.999939 12.9326 0.999939 13.2387C0.999939 13.5447 1.24806 13.7928 1.55412 13.7928H5.24597C5.47802 14.4821 6.12992 14.98 6.89638 14.98C7.66284 14.98 8.31474 14.4821 8.54679 13.7928H14.613C14.9191 13.7928 15.1672 13.5447 15.1672 13.2387C15.1672 12.9326 14.9191 12.6845 14.613 12.6845Z" fill="#363D4E"/>
</svg>
