<svg width="20" height="20" viewBox="0 0 20 20" fill="none" xmlns="http://www.w3.org/2000/svg">
<rect width="20" height="20" fill="#E5E5E5"/>
<g clip-path="url(#clip0_20_256)">
<path d="M7.08331 7.5H6.66663V8.33332H7.08331C7.3128 8.33332 7.49999 8.14656 7.49999 7.91664C7.49999 7.68676 7.3128 7.5 7.08331 7.5Z" fill="#0BB8E4"/>
<path d="M19.8779 8.45539L15.7113 4.28875C15.6331 4.21062 15.5273 4.16668 15.4166 4.16668H11.6666V2.91668C11.6667 2.68637 11.4803 2.5 11.25 2.5H1.66668C0.747891 2.5 0 3.24746 0 4.16668V14.5834C0 15.2727 0.560703 15.8334 1.25 15.8334H2.23695C2.58203 16.8013 3.4984 17.5 4.58332 17.5C5.66828 17.5 6.58465 16.8013 6.92977 15.8333H13.0703C13.4154 16.8013 14.3317 17.5 15.4167 17.5C16.5016 17.5 17.418 16.8013 17.7631 15.8333H18.3334C19.2521 15.8333 20 15.0859 20 14.1666V8.75C20 8.63934 19.9561 8.53352 19.8779 8.45539ZM2.5 10.4167V7.08336C2.5 6.85305 2.68637 6.66668 2.91668 6.66668H4.58336C4.81367 6.66668 5.00004 6.85305 5.00004 7.08336C5.00004 7.31367 4.81367 7.50004 4.58336 7.50004H3.33336V8.33336H4.16668C4.39699 8.33336 4.58336 8.51973 4.58336 8.75004C4.58336 8.98035 4.39699 9.16672 4.16668 9.16672H3.33332V10.4167C3.33332 10.647 3.14695 10.8334 2.91664 10.8334C2.68637 10.8333 2.5 10.647 2.5 10.4167ZM4.58332 16.6667C3.66453 16.6667 2.91664 15.9192 2.91664 15C2.91664 14.0808 3.66453 13.3333 4.58332 13.3333C5.50211 13.3333 6.25 14.0808 6.25 15C6.25 15.9192 5.50211 16.6667 4.58332 16.6667ZM8.33332 9.58332V10.4166C8.33332 10.647 8.14695 10.8333 7.91664 10.8333C7.68633 10.8333 7.49996 10.647 7.49996 10.4166V9.58332C7.49996 9.35344 7.31277 9.16664 7.08328 9.16664H6.6666V10.4166C6.6666 10.647 6.48023 10.8333 6.24992 10.8333C6.01961 10.8333 5.83324 10.647 5.83324 10.4166V7.08332C5.83324 6.85301 6.01961 6.66664 6.24992 6.66664H7.08324C7.77254 6.66664 8.33324 7.22734 8.33324 7.91664C8.33324 8.23648 8.21281 8.52863 8.01422 8.74996C8.21289 8.97137 8.33332 9.26352 8.33332 9.58332ZM10.8333 8.33332C11.0636 8.33332 11.25 8.51969 11.25 8.75C11.25 8.98031 11.0636 9.16668 10.8333 9.16668H10V10H11.25C11.4803 10 11.6667 10.1864 11.6667 10.4167C11.6667 10.647 11.4803 10.8334 11.25 10.8334H9.58332C9.35301 10.8334 9.16664 10.647 9.16664 10.4167V7.08336C9.16664 6.85305 9.35301 6.66668 9.58332 6.66668H11.25C11.4803 6.66668 11.6667 6.85305 11.6667 7.08336C11.6667 7.31367 11.4803 7.50004 11.25 7.50004H10V8.33336H10.8333V8.33332ZM12.9167 10.8333C12.6864 10.8333 12.5 10.647 12.5 10.4166V7.08332C12.5 6.85301 12.6864 6.66664 12.9167 6.66664H14.5834C14.8137 6.66664 15 6.85301 15 7.08332C15 7.31363 14.8137 7.5 14.5834 7.5H13.3334V8.33332H14.1667C14.397 8.33332 14.5834 8.51969 14.5834 8.75C14.5834 8.98031 14.397 9.16668 14.1667 9.16668H13.3334V10H14.5834C14.8137 10 15 10.1864 15 10.4167C15 10.647 14.8137 10.8334 14.5834 10.8334H12.9167V10.8333ZM15.4167 16.6667C14.4979 16.6667 13.75 15.9192 13.75 15C13.75 14.0808 14.4979 13.3333 15.4167 13.3333C16.3355 13.3333 17.0834 14.0808 17.0834 15C17.0834 15.9192 16.3355 16.6667 15.4167 16.6667Z" fill="#0BB8E4"/>
</g>
<defs>
<clipPath id="clip0_20_256">
<rect width="20" height="20" fill="white"/>
</clipPath>
</defs>
</svg>
