<svg width="16" height="16" viewBox="0 0 16 16" fill="none" xmlns="http://www.w3.org/2000/svg">
<rect width="16" height="16" fill="#E5E5E5"/>
<g clip-path="url(#clip0_20_256)">
<path d="M5.66666 6H5.33331V6.66666H5.66666C5.85025 6.66666 6 6.51725 6 6.33331C6 6.14941 5.85025 6 5.66666 6Z" fill="black"/>
<path d="M15.9023 6.76431L12.569 3.431C12.5065 3.3685 12.4219 3.33334 12.3333 3.33334H9.33331V2.33334C9.33334 2.14909 9.18425 2 9 2H1.33334C0.598312 2 0 2.59797 0 3.33334V11.6667C0 12.2181 0.448563 12.6667 1 12.6667H1.78956C2.06562 13.441 2.79872 14 3.66666 14C4.53463 14 5.26772 13.441 5.54381 12.6667H10.4562C10.7323 13.441 11.4654 14 12.3333 14C13.2013 14 13.9344 13.441 14.2105 12.6667H14.6667C15.4017 12.6667 16 12.0687 16 11.3333V7C16 6.91147 15.9648 6.82681 15.9023 6.76431ZM2 8.33334V5.66669C2 5.48244 2.14909 5.33334 2.33334 5.33334H3.66669C3.85094 5.33334 4.00003 5.48244 4.00003 5.66669C4.00003 5.85094 3.85094 6.00003 3.66669 6.00003H2.66669V6.66669H3.33334C3.51759 6.66669 3.66669 6.81578 3.66669 7.00003C3.66669 7.18428 3.51759 7.33337 3.33334 7.33337H2.66666V8.33337C2.66666 8.51762 2.51756 8.66672 2.33331 8.66672C2.14909 8.66666 2 8.51759 2 8.33334ZM3.66666 13.3333C2.93162 13.3333 2.33331 12.7354 2.33331 12C2.33331 11.2646 2.93162 10.6667 3.66666 10.6667C4.40169 10.6667 5 11.2647 5 12C5 12.7353 4.40169 13.3333 3.66666 13.3333ZM6.66666 7.66666V8.33331C6.66666 8.51756 6.51756 8.66666 6.33331 8.66666C6.14906 8.66666 5.99997 8.51756 5.99997 8.33331V7.66666C5.99997 7.48275 5.85022 7.33331 5.66663 7.33331H5.33328V8.33331C5.33328 8.51756 5.18419 8.66666 4.99994 8.66666C4.81569 8.66666 4.66659 8.51756 4.66659 8.33331V5.66666C4.66659 5.48241 4.81569 5.33331 4.99994 5.33331H5.66659C6.21803 5.33331 6.66659 5.78188 6.66659 6.33331C6.66659 6.58919 6.57025 6.82291 6.41138 6.99997C6.57031 7.17709 6.66666 7.41081 6.66666 7.66666ZM8.66666 6.66666C8.85091 6.66666 9 6.81575 9 7C9 7.18425 8.85091 7.33334 8.66666 7.33334H8V8H9C9.18425 8 9.33334 8.14909 9.33334 8.33334C9.33334 8.51759 9.18425 8.66669 9 8.66669H7.66666C7.48241 8.66669 7.33331 8.51759 7.33331 8.33334V5.66669C7.33331 5.48244 7.48241 5.33334 7.66666 5.33334H9C9.18425 5.33334 9.33334 5.48244 9.33334 5.66669C9.33334 5.85094 9.18425 6.00003 9 6.00003H8V6.66669H8.66666V6.66666ZM10.3333 8.66666C10.1491 8.66666 10 8.51756 10 8.33331V5.66666C10 5.48241 10.1491 5.33331 10.3333 5.33331H11.6667C11.8509 5.33331 12 5.48241 12 5.66666C12 5.85091 11.8509 6 11.6667 6H10.6667V6.66666H11.3333C11.5176 6.66666 11.6667 6.81575 11.6667 7C11.6667 7.18425 11.5176 7.33334 11.3333 7.33334H10.6667V8H11.6667C11.8509 8 12 8.14909 12 8.33334C12 8.51759 11.8509 8.66669 11.6667 8.66669H10.3333V8.66666ZM12.3333 13.3333C11.5983 13.3333 11 12.7353 11 12C11 11.2647 11.5983 10.6667 12.3333 10.6667C13.0684 10.6667 13.6667 11.2646 13.6667 12C13.6667 12.7354 13.0684 13.3333 12.3333 13.3333Z" fill="black"/>
</g>
<defs>
<clipPath id="clip0_20_256">
<rect width="16" height="16" fill="white"/>
</clipPath>
</defs>
</svg>
