<svg width="16" height="16" viewBox="0 0 16 16" fill="none" xmlns="http://www.w3.org/2000/svg">
<path d="M14.8794 14.2971L10.3379 9.75555C10.7302 9.66704 11.1531 9.48031 11.6012 9.19692C11.924 8.99285 12.1167 8.64312 12.1166 8.26138C12.1166 8.1336 12.0946 8.00962 12.0538 7.89328C12.4957 7.82631 12.9796 7.62821 13.4972 7.30096C13.8199 7.09689 14.0126 6.74719 14.0126 6.36545C14.0126 5.9837 13.8199 5.634 13.4972 5.42988C13.2604 5.28023 13.0308 5.15778 12.8089 5.06221C12.9518 4.97176 13.0849 4.86898 13.202 4.75192C13.5744 4.37955 13.8487 3.81102 14.0175 3.0621C14.1014 2.6896 13.9904 2.30605 13.7205 2.03611C13.4505 1.7662 13.067 1.6551 12.6945 1.73907C11.9456 1.90781 11.3771 2.18221 11.0047 2.55457C10.8877 2.67152 10.7851 2.8045 10.6947 2.94715C10.5992 2.72569 10.477 2.49658 10.3277 2.2603C10.1236 1.93756 9.77389 1.7449 9.39212 1.7449C9.01034 1.7449 8.66065 1.93759 8.45658 2.26033C8.12933 2.77795 7.93122 3.26179 7.86426 3.70372C7.74791 3.6629 7.62393 3.64086 7.49613 3.64086C7.11438 3.64086 6.76468 3.83355 6.56059 4.15629C6.27725 4.60445 6.0905 5.02735 6.00199 5.41965L1.70292 1.12059C1.54214 0.959805 1.28142 0.959805 1.12061 1.12059C0.959798 1.28137 0.959798 1.54209 1.12061 1.7029L5.08482 5.66711C4.91329 5.75579 4.76525 5.88917 4.65785 6.05906C4.24761 6.70793 4.03961 7.30394 4.03961 7.83058C4.03961 8.73106 4.66958 9.66876 5.03609 10.1381L1.95333 13.221C1.79252 13.3818 1.79252 13.6425 1.95333 13.8033C2.03372 13.8837 2.13913 13.9239 2.24449 13.9239C2.34984 13.9239 2.45525 13.8837 2.53565 13.8033L5.61833 10.7206C6.08735 11.087 7.02576 11.7179 7.92693 11.7179C8.45357 11.7179 9.04958 11.5099 9.69848 11.0997C9.86834 10.9923 10.0017 10.8443 10.0904 10.6727L14.297 14.8794C14.3775 14.9598 14.4829 15 14.5883 15C14.6936 15 14.799 14.9598 14.8794 14.8794C15.0402 14.7186 15.0402 14.4579 14.8794 14.2971ZM11.587 3.13691C11.8438 2.8801 12.2894 2.67453 12.8755 2.54249C12.8985 2.53729 12.9202 2.53505 12.9406 2.53505C13.0421 2.53505 13.1105 2.59086 13.1382 2.61848C13.1713 2.65167 13.2451 2.74366 13.2141 2.88111C13.0821 3.46725 12.8765 3.91279 12.6197 4.16961C12.2231 4.56625 11.4596 4.76012 10.9146 4.84207C10.9965 4.29689 11.1904 3.53356 11.587 3.13691ZM11.7257 5.6352C12.0888 5.6352 12.5493 5.80493 13.0571 6.12597C13.1762 6.20133 13.1891 6.31858 13.1891 6.36547C13.1891 6.41237 13.1762 6.52959 13.0571 6.60489C12.5493 6.92596 12.0889 7.09569 11.7257 7.09569C11.1647 7.09569 10.4878 6.69291 10.0444 6.36545C10.4879 6.03789 11.1648 5.6352 11.7257 5.6352ZM9.15264 2.70048C9.22797 2.58134 9.34522 2.56846 9.39209 2.56846C9.43896 2.56846 9.55621 2.58134 9.63154 2.70045C9.95261 3.20834 10.1223 3.6687 10.1223 4.0319C10.1223 4.59286 9.71959 5.26978 9.39212 5.71313C9.06454 5.26964 8.66188 4.59278 8.66188 4.0319C8.66188 3.6687 8.83157 3.20831 9.15264 2.70048ZM7.25668 4.59644C7.33201 4.4773 7.44923 4.46443 7.49613 4.46443C7.54302 4.46443 7.66025 4.4773 7.73558 4.59641C8.05668 5.10427 8.22637 5.56463 8.22637 5.92786C8.22637 6.33318 8.01607 6.79898 7.77588 7.19355L6.79711 6.21478C6.77715 6.11705 6.76591 6.02083 6.76591 5.92786C6.76591 5.56466 6.93561 5.10424 7.25668 4.59644ZM5.59344 9.51186C5.26586 9.06837 4.8632 8.39151 4.8632 7.83063C4.86317 7.4674 5.03287 7.00701 5.35397 6.49921C5.4293 6.38007 5.54655 6.3672 5.59342 6.3672C5.64031 6.3672 5.75756 6.38007 5.83286 6.49918C6.15396 7.00704 6.32366 7.4674 6.32366 7.83063C6.32366 8.39159 5.92088 9.06851 5.59344 9.51186ZM9.25841 10.4036C8.75055 10.7247 8.29016 10.8944 7.92696 10.8944C7.366 10.8944 6.68908 10.4916 6.24573 10.1641C6.68922 9.83657 7.36608 9.43391 7.92696 9.43391C8.29014 9.43391 8.75055 9.60363 9.25841 9.9247C9.37752 10 9.3904 10.1173 9.3904 10.1641C9.39037 10.2111 9.37752 10.3283 9.25841 10.4036ZM9.82973 8.99168C9.73676 8.99168 9.64056 8.98041 9.54278 8.96048L8.56401 7.98171C8.95858 7.74146 9.42441 7.53122 9.8297 7.53122C10.1929 7.53122 10.6533 7.70094 11.1611 8.02201C11.2803 8.09732 11.2931 8.21457 11.2931 8.26143C11.2931 8.30833 11.2803 8.42555 11.1611 8.50088C10.6533 8.82193 10.1929 8.99168 9.82973 8.99168Z" fill="#F26333"/>
</svg>
