<svg width="16" height="16" viewBox="0 0 16 16" fill="none" xmlns="http://www.w3.org/2000/svg">
<rect width="16" height="16" fill="#E5E5E5"/>
<path d="M6.17945 1H2.73461C1.77815 1 1 1.77815 1 2.73461V6.17945C1 7.13591 1.77815 7.91406 2.73461 7.91406H6.17945C7.13591 7.91406 7.91406 7.13591 7.91406 6.17945V2.73461C7.91406 1.77815 7.13591 1 6.17945 1ZM6.74219 6.17945C6.74219 6.48974 6.48974 6.74219 6.17945 6.74219H2.73461C2.42433 6.74219 2.17188 6.48974 2.17188 6.17945V2.73461C2.17188 2.42433 2.42433 2.17188 2.73461 2.17188H6.17945C6.48974 2.17188 6.74219 2.42433 6.74219 2.73461V6.17945Z" fill="#363D4E"/>
<path d="M14.2422 1H10.8438C9.87449 1 9.08594 1.78855 9.08594 2.75781V6.15625C9.08594 7.12551 9.87449 7.91406 10.8438 7.91406H14.2422C15.2114 7.91406 16 7.12551 16 6.15625V2.75781C16 1.78855 15.2114 1 14.2422 1ZM14.8281 6.15625C14.8281 6.47934 14.5653 6.74219 14.2422 6.74219H10.8438C10.5207 6.74219 10.2578 6.47934 10.2578 6.15625V2.75781C10.2578 2.43473 10.5207 2.17188 10.8438 2.17188H14.2422C14.5653 2.17188 14.8281 2.43473 14.8281 2.75781V6.15625Z" fill="#363D4E"/>
<path d="M6.17945 9.08594H2.73461C1.77815 9.08594 1 9.86409 1 10.8205V14.2654C1 15.2218 1.77815 16 2.73461 16H6.17945C7.13591 16 7.91406 15.2218 7.91406 14.2654V10.8205C7.91406 9.86409 7.13591 9.08594 6.17945 9.08594ZM6.74219 14.2654C6.74219 14.5757 6.48974 14.8281 6.17945 14.8281H2.73461C2.42433 14.8281 2.17188 14.5757 2.17188 14.2654V10.8205C2.17188 10.5103 2.42433 10.2578 2.73461 10.2578H6.17945C6.48974 10.2578 6.74219 10.5103 6.74219 10.8205V14.2654Z" fill="#363D4E"/>
<path d="M14.2422 9.08594H10.8438C9.87449 9.08594 9.08594 9.87449 9.08594 10.8438V14.2422C9.08594 15.2114 9.87449 16 10.8438 16H14.2422C15.2114 16 16 15.2114 16 14.2422V10.8438C16 9.87449 15.2114 9.08594 14.2422 9.08594ZM14.8281 14.2422C14.8281 14.5653 14.5653 14.8281 14.2422 14.8281H10.8438C10.5207 14.8281 10.2578 14.5653 10.2578 14.2422V10.8438C10.2578 10.5207 10.5207 10.2578 10.8438 10.2578H14.2422C14.5653 10.2578 14.8281 10.5207 14.8281 10.8438V14.2422Z" fill="#363D4E"/>
</svg>
