<svg width="16" height="16" viewBox="0 0 16 16" fill="none" xmlns="http://www.w3.org/2000/svg">
<rect width="16" height="16" fill="#E5E5E5"/>
<g clip-path="url(#clip0_20_256)">
<path d="M7.99999 2.748L7.28299 2.011C5.59999 0.281003 2.51399 0.878003 1.39999 3.053C0.876987 4.076 0.758987 5.553 1.71399 7.438C2.63399 9.253 4.54799 11.427 7.99999 13.795C11.452 11.427 13.365 9.253 14.286 7.438C15.241 5.552 15.124 4.076 14.6 3.053C13.486 0.878003 10.4 0.280003 8.71699 2.01L7.99999 2.748ZM7.99999 15C-7.33301 4.868 3.27899 -3.04 7.82399 1.143C7.88399 1.198 7.94299 1.255 7.99999 1.314C8.05641 1.25506 8.11512 1.19835 8.17599 1.144C12.72 -3.042 23.333 4.867 7.99999 15Z" fill="black"/>
</g>
<defs>
<clipPath id="clip0_20_256">
<rect width="16" height="16" fill="white"/>
</clipPath>
</defs>
</svg>
