<svg width="24" height="24" viewBox="0 0 24 24" fill="none" xmlns="http://www.w3.org/2000/svg">
<rect width="24" height="24" fill="#E5E5E5"/>
<path d="M1.27397 12C0.533184 12 -0.0750938 12.6024 0.0075355 13.3386C0.242004 15.4275 1.02232 17.4267 2.28061 19.1301C3.80563 21.1945 5.95239 22.7156 8.40565 23.47C10.8589 24.2243 13.4894 24.1723 15.9109 23.3214C18.3324 22.4705 20.4172 20.8656 21.8594 18.7424C23.3015 16.6193 24.0248 14.0896 23.9233 11.525C23.8217 8.9604 22.9005 6.49593 21.2949 4.49347C19.6894 2.49102 17.4841 1.0561 15.0029 0.399416C12.9557 -0.142409 10.8096 -0.130865 8.78133 0.421166C8.06655 0.615708 7.73077 1.40321 8.00383 2.09183C8.27688 2.78046 9.05568 3.107 9.77636 2.93557C11.2646 2.58153 12.8244 2.59784 14.3165 2.99275C16.2431 3.50263 17.9553 4.61677 19.202 6.17157C20.4486 7.72637 21.1638 9.63991 21.2427 11.6312C21.3216 13.6225 20.7599 15.5866 19.6402 17.2352C18.5205 18.8837 16.9017 20.1298 15.0216 20.7905C13.1414 21.4511 11.099 21.4916 9.19412 20.9058C7.28929 20.3201 5.62245 19.1391 4.43835 17.5361C3.52123 16.2946 2.93113 14.8507 2.71166 13.3367C2.60538 12.6036 2.01476 12 1.27397 12Z" fill="#040C22"/>
</svg>
