<svg width="20" height="20" viewBox="0 0 20 20" fill="none" xmlns="http://www.w3.org/2000/svg">
<rect width="20" height="20" fill="#E5E5E5"/>
<path d="M9.99976 1.24977C8.17706 1.25193 6.42963 1.97696 5.14079 3.2658C3.85194 4.55464 3.12692 6.30207 3.12476 8.12477C3.12476 14.0073 9.37476 18.4507 9.64087 18.6369C9.74611 18.7104 9.87139 18.7498 9.99976 18.7498C10.1281 18.7498 10.2534 18.7104 10.3586 18.6369C10.6248 18.4507 16.8748 14.0073 16.8748 8.12477C16.8726 6.30207 16.1476 4.55464 14.8587 3.2658C13.5699 1.97696 11.8225 1.25193 9.99976 1.24977ZM10.0002 5.625C10.4947 5.625 10.978 5.77162 11.3891 6.04632C11.8003 6.32103 12.1207 6.71147 12.3099 7.16829C12.4991 7.6251 12.5486 8.12777 12.4522 8.61272C12.3557 9.09768 12.1176 9.54313 11.768 9.89277C11.4183 10.2424 10.9729 10.4805 10.4879 10.577C10.003 10.6734 9.50032 10.6239 9.0435 10.4347C8.58669 10.2455 8.19624 9.92505 7.92154 9.51392C7.64684 9.1028 7.50021 8.61945 7.50021 8.125C7.5002 7.79669 7.56486 7.4716 7.6905 7.16828C7.81613 6.86496 8.00028 6.58936 8.23243 6.35721C8.46457 6.12506 8.74018 5.94091 9.04349 5.81528C9.34681 5.68965 9.67191 5.62499 10.0002 5.625Z" fill="#363D4E"/>
</svg>
