<svg width="16" height="16" viewBox="0 0 16 16" fill="none" xmlns="http://www.w3.org/2000/svg">
<path d="M7.99989 1C4.13393 1 1 4.13393 1 7.99989C1 11.8659 4.13393 14.9998 7.99989 14.9998C11.8659 14.9998 14.9998 11.8659 14.9998 7.99989C14.9998 4.1339 11.8659 1 7.99989 1ZM2.18 7.99995C2.17997 4.78847 4.78847 2.17997 7.99992 2.18C9.30313 2.18 10.5062 2.60844 11.4762 3.3322C11.6026 3.4265 11.6148 3.61162 11.5033 3.7231L3.7231 11.5033C3.61159 11.6148 3.42648 11.6026 3.3322 11.4762C2.60842 10.5062 2.18 9.30313 2.18 7.99995ZM7.99987 13.8198C6.69666 13.8198 5.49355 13.3913 4.5236 12.6676C4.39722 12.5733 4.38497 12.3882 4.49645 12.2767L12.2767 4.49645C12.3882 4.38494 12.5733 4.39722 12.6676 4.5236C13.3913 5.49355 13.8198 6.69666 13.8198 7.99984C13.8198 11.2113 11.2113 13.8198 7.99987 13.8198Z" fill="#F55053"/>
<path d="M9.29973 1.12077C12.2527 1.94191 14.4196 4.65035 14.4196 7.86522C14.4196 11.7312 11.2857 14.8651 7.41971 14.8651C6.97571 14.8651 6.54153 14.8238 6.12057 14.7446C6.71857 14.9112 7.34889 15 8.00002 15C11.866 15 14.9999 11.8661 14.9999 8.0001C14.9999 4.57841 12.5446 1.73003 9.29973 1.12077Z" fill="#F55053"/>
<path d="M6.68968 5.42752C6.42486 5.0457 5.94263 4.88342 5.48493 4.80325C5.16654 4.74747 4.84425 4.71974 4.52146 4.69907C4.34802 4.68797 4.20452 4.83286 4.21759 5.00616C4.23228 5.20093 4.25352 5.3952 4.28133 5.58852C4.32287 5.87721 4.3802 6.16768 4.50762 6.43004C4.63504 6.6924 4.84004 6.92681 5.10948 7.03848L6.68968 5.42752Z" fill="#F55053"/>
<path d="M9.31023 5.42752C9.57505 5.0457 10.0573 4.88342 10.515 4.80325C10.8334 4.74747 11.1557 4.71974 11.4784 4.69907C11.6519 4.68797 11.7954 4.83286 11.7823 5.00616C11.7676 5.20093 11.7464 5.3952 11.7186 5.58852C11.677 5.87721 11.6197 6.16768 11.4923 6.43004C11.3649 6.6924 11.1599 6.92681 10.8904 7.03848L9.31023 5.42752Z" fill="#F55053"/>
<path d="M11.7826 5.00646C11.7677 5.2012 11.7466 5.39539 11.7188 5.58873C11.6772 5.87734 11.6199 6.16792 11.4923 6.43039C11.365 6.69258 11.1601 6.92694 10.8906 7.0388L10.5537 6.6954C10.7246 6.57036 10.8591 6.39358 10.9525 6.20193C11.0798 5.93947 11.1371 5.64916 11.1787 5.36028C11.2065 5.16694 11.2279 4.97275 11.2425 4.77801C11.2442 4.75692 11.2433 4.73614 11.2405 4.71618C11.3197 4.70973 11.3993 4.70437 11.4785 4.69931C11.6519 4.68807 11.7955 4.83308 11.7826 5.00646Z" fill="#F55053"/>
<path d="M11.1779 6.55505C10.8405 6.05434 10.3635 5.6752 9.82213 5.42003C8.34146 4.7222 6.35844 4.9066 5.18576 6.10851C5.05151 6.2461 4.9295 6.39564 4.82207 6.55508C4.20143 7.47617 3.92671 8.69732 4.21614 9.78219C4.37938 10.3941 4.79114 10.9072 5.293 11.2809C5.55192 11.4738 5.83626 11.6324 6.13427 11.7562C7.5497 12.344 9.44038 12.2272 10.6961 11.3051C11.2052 10.9314 11.6197 10.3974 11.7838 9.78219C12.0732 8.69729 11.7985 7.47611 11.1779 6.55505Z" fill="#F55053"/>
<path d="M11.7839 9.78203C11.6198 10.3975 11.2053 10.9314 10.6961 11.3052C9.44049 12.2272 7.54978 12.3441 6.1343 11.7562C5.86368 11.6438 5.60458 11.5027 5.36543 11.3335C5.44664 11.3737 5.52927 11.4114 5.61273 11.446C7.02821 12.0338 8.91892 11.9169 10.1748 10.9949C10.6837 10.6212 11.0982 10.0872 11.2623 9.47209C11.5518 8.38708 11.2772 7.16606 10.6565 6.24486C10.4434 5.92899 10.1751 5.66147 9.87017 5.44313C10.3917 5.69772 10.8506 6.06924 11.178 6.55513C11.7985 7.476 12.0734 8.69732 11.7839 9.78203Z" fill="#F55053"/>
<path d="M8.00007 10.8836C8.96421 10.8836 9.7458 10.2952 9.7458 9.56941C9.7458 8.8436 8.96421 8.25521 8.00007 8.25521C7.03593 8.25521 6.25433 8.8436 6.25433 9.56941C6.25433 10.2952 7.03593 10.8836 8.00007 10.8836Z" fill="#F6F7F8"/>
<path d="M9.74538 9.56947C9.74538 10.2954 8.96385 10.8835 7.9997 10.8835C7.5391 10.8835 7.12096 10.7495 6.80873 10.5303C7.01444 10.5943 7.2398 10.6297 7.47643 10.6297C8.44061 10.6297 9.22211 10.0413 9.22211 9.3157C9.22211 8.93603 9.00853 8.59432 8.66682 8.35433C9.29998 8.55189 9.74538 9.02148 9.74538 9.56947Z" fill="#F6F7F8"/>
<path d="M7.33165 9.85516C7.4902 9.85516 7.61873 9.72725 7.61873 9.56947C7.61873 9.4117 7.4902 9.28379 7.33165 9.28379C7.1731 9.28379 7.04457 9.4117 7.04457 9.56947C7.04457 9.72725 7.1731 9.85516 7.33165 9.85516Z" fill="#040C22"/>
<path d="M8.66797 9.85526C8.82652 9.85526 8.95504 9.72735 8.95504 9.56957C8.95504 9.41179 8.82652 9.28389 8.66797 9.28389C8.50942 9.28389 8.38089 9.41179 8.38089 9.56957C8.38089 9.72735 8.50942 9.85526 8.66797 9.85526Z" fill="#040C22"/>
<path d="M6.55943 7.90437C6.44615 7.90437 6.35435 7.81255 6.35435 7.69929V7.35264C6.35435 7.23938 6.44615 7.14756 6.55943 7.14756C6.67271 7.14756 6.7645 7.23938 6.7645 7.35264V7.69927C6.7645 7.81255 6.67271 7.90437 6.55943 7.90437Z" fill="#F6F7F8"/>
<path d="M9.44021 7.90447C9.32693 7.90447 9.23514 7.81265 9.23514 7.69939V7.35273C9.23514 7.23948 9.32693 7.14766 9.44021 7.14766C9.5535 7.14766 9.64529 7.23948 9.64529 7.35273V7.69937C9.64529 7.81265 9.5535 7.90447 9.44021 7.90447Z" fill="#F6F7F8"/>
</svg>
