<svg width="24" height="24" viewBox="0 0 24 24" fill="none" xmlns="http://www.w3.org/2000/svg">
<rect width="24" height="24" fill="#E5E5E5"/>
<g clip-path="url(#clip0_20_256)">
<path d="M19.2254 14.3497C19.227 14.3473 19.2287 14.3451 19.2303 14.3427C19.2435 14.3203 19.2244 14.3508 19.2254 14.3497Z" fill="#040C22"/>
<path d="M19.2301 9.52977C19.2288 9.52714 19.2272 9.52475 19.2256 9.52213C19.2287 9.52752 19.2325 9.53426 19.2352 9.53927C19.2335 9.53612 19.2318 9.53297 19.2301 9.52977Z" fill="#040C22"/>
<path d="M19.3973 2.63378C19.3781 2.6558 19.4161 2.61157 19.3973 2.63378V2.63378Z" fill="#040C22"/>
<path d="M13.9884 18.3124C13.9977 18.3082 14.0007 18.3068 13.9884 18.3124V18.3124Z" fill="#040C22"/>
<path d="M22.2523 0.911039C22.1963 0.796207 22.1402 0.681326 22.0842 0.566398C21.8936 0.664942 21.7085 0.774282 21.5263 0.887538C21.4228 0.952024 21.3204 1.01842 21.2188 1.08606L21.0849 1.17663C21.0439 1.11438 21.0027 1.05219 20.9618 0.989855L21.094 0.908221C21.2035 0.841681 21.3139 0.776383 21.4254 0.713426C21.6158 0.605759 21.8093 0.502295 22.0077 0.410199C21.9696 0.3321 21.9314 0.254 21.8933 0.175949C21.8707 0.129567 21.8481 0.0833279 21.8254 0.0370414C21.8079 0.00112042 21.8145 -0.00766876 21.7757 0.00632706C21.4284 0.131716 21.0883 0.276212 20.7556 0.436137C19.9529 0.822001 19.1724 1.29332 18.4983 1.87828C17.7987 2.48526 17.1773 3.18619 16.7512 4.01448C16.324 4.8451 16.0995 5.75884 16.0867 6.69246C16.0803 7.16306 16.1414 7.62492 16.2272 8.0865C16.314 8.55419 16.4718 8.99995 16.634 9.44571C16.7447 9.76728 16.9187 10.0644 17.0403 10.3821C17.1194 10.5889 17.1769 10.7969 17.2264 11.012C17.2719 11.2101 17.2805 11.431 17.2571 11.6327C17.2341 11.8306 17.1669 12.0021 17.067 12.1727C16.9621 12.3518 16.802 12.5065 16.649 12.6445C16.4871 12.7907 16.3133 12.9227 16.1325 13.0444C15.3615 13.563 14.4836 13.9171 13.6056 14.2084C13.5773 14.2178 13.5489 14.2265 13.5205 14.2357L11.7161 17.957C11.7408 17.9488 11.7657 17.9411 11.7904 17.9328C12.2251 17.7881 12.6575 17.6359 13.085 17.4709C13.2685 17.4001 13.4508 17.3269 13.633 17.2527C13.648 17.2465 13.6832 17.2313 13.6832 17.2313C13.6832 17.2313 13.7068 17.2893 13.7174 17.3132C13.81 17.5232 13.9024 17.7329 13.995 17.9429C14.0333 18.0295 14.0715 18.1162 14.1096 18.2027C14.1162 18.2177 14.1227 18.2328 14.1294 18.2476C14.1297 18.2485 13.999 18.3079 13.972 18.3201C13.9782 18.3172 13.984 18.3147 13.9886 18.3125C13.9838 18.3148 13.9773 18.3177 13.9673 18.3223C13.2501 18.6511 12.5169 18.9455 11.7753 19.2142C11.5085 19.3109 11.2401 19.4033 10.971 19.4937L8.82037 23.929C9.14682 23.8113 9.47135 23.6883 9.7944 23.5637C10.6551 23.2313 11.5056 22.8719 12.3431 22.4847C14.0452 21.6979 15.7039 20.7972 17.2296 19.7031C18.6877 18.6514 20.0633 17.3998 20.9698 15.8285C21.4249 15.0395 21.7567 14.167 21.8809 13.262C22.008 12.3374 21.9208 11.39 21.6331 10.5024C21.4434 9.91727 21.1725 9.35114 20.8327 8.83764C20.6818 8.60964 20.523 8.3901 20.3576 8.17272C20.2636 8.04948 20.1602 7.93331 20.0583 7.81661C19.9052 7.64111 19.7794 7.44121 19.6543 7.24565C19.4421 6.91419 19.2861 6.53559 19.2091 6.14963C19.1139 5.67325 19.1476 5.19624 19.273 4.72903C19.5135 3.83301 20.0795 3.03621 20.7029 2.36369C21.086 1.95022 21.5063 1.56956 21.9531 1.22597C22.0422 1.15738 22.1325 1.09031 22.2243 1.02539C22.2957 0.974522 22.2882 0.98441 22.2523 0.911039ZM19.2546 14.2995C19.2546 14.2995 19.245 14.3177 19.2302 14.3427C19.2268 14.3479 19.2256 14.3495 19.2253 14.3497C18.8248 14.9576 18.3534 15.4928 17.8038 15.9711C17.2858 16.4219 16.7221 16.8106 16.1419 17.1758C15.9704 16.8838 15.7989 16.5917 15.6274 16.2996C16.3546 15.8832 17.0619 15.4254 17.6757 14.8505C17.978 14.5672 18.2463 14.2589 18.489 13.9235L18.5462 13.8487L19.2546 14.2995ZM19.2258 9.52214C19.22 9.51178 19.2172 9.50666 19.2302 9.52978C19.2424 9.55171 19.2405 9.54846 19.2353 9.53929C19.6499 10.2917 19.9345 11.1238 19.9309 11.9907C19.6804 11.9859 19.4297 11.9811 19.1791 11.9763C19.2106 11.333 19.043 10.6936 18.7856 10.1082C18.6431 9.7841 18.4624 9.47929 18.2867 9.17253C18.1349 8.90776 18.003 8.63778 17.8747 8.36106C17.9721 8.31712 18.0695 8.27317 18.1669 8.22932C18.2295 8.20114 18.4052 8.12108 18.4052 8.12108L18.4211 8.15428C18.5364 8.37687 18.6549 8.59269 18.787 8.80578C18.9346 9.04394 19.0881 9.27819 19.2258 9.52214ZM19.3972 2.63386C18.9613 3.13609 18.5709 3.66769 18.2981 4.27801C18.0429 4.84926 17.898 5.46937 17.908 6.09608C17.7455 6.09374 17.5829 6.0914 17.4203 6.08911C17.4445 5.25457 17.7096 4.44591 18.136 3.73098C18.3527 3.36761 18.6091 3.03324 18.8857 2.71387C18.9524 2.63692 19.0238 2.56403 19.0938 2.49013C19.1189 2.46362 19.1961 2.37778 19.1961 2.37778C19.1961 2.37778 19.3543 2.53097 19.4247 2.59842C19.4257 2.59928 19.4264 2.60009 19.4273 2.60095C19.4168 2.61146 19.4068 2.62249 19.3972 2.63386Z" fill="#040C22"/>
<path d="M13.9096 10.0365C13.9096 6.67605 11.1757 3.94214 7.81527 3.94214C4.45489 3.94214 1.72102 6.67605 1.72102 10.0365C1.72102 11.0212 1.95609 11.9519 2.37257 12.7761L7.81527 24.0001L13.2588 12.7743C13.6748 11.9506 13.9096 11.0204 13.9096 10.0365ZM7.81527 13.4089C5.95564 13.4089 4.44271 11.8961 4.44271 10.0364C4.44271 8.17675 5.95569 6.66382 7.81527 6.66382C9.67485 6.66382 11.1878 8.1768 11.1878 10.0364C11.1878 11.8961 9.67485 13.4089 7.81527 13.4089Z" fill="#040C22"/>
</g>
<defs>
<clipPath id="clip0_20_256">
<rect width="24" height="24" fill="white"/>
</clipPath>
</defs>
</svg>
