<svg width="16" height="16" viewBox="0 0 16 16" fill="none" xmlns="http://www.w3.org/2000/svg">
<rect width="16" height="16" fill="#E5E5E5"/>
<path d="M11.3701 2.92823C9.66052 3.3771 9.06635 4.84901 9.16517 5.46412C9.19651 5.44521 9.22717 5.42698 9.25885 5.40723C9.40908 5.31506 9.57261 5.22786 9.74227 5.13794C9.9109 5.04746 10.0925 4.9635 10.2754 4.87833C10.3674 4.83542 10.4638 4.79775 10.5592 4.75892L10.703 4.7003C10.765 4.67594 10.8032 4.6659 10.8543 4.64802L11.1425 4.55212C11.2427 4.52353 11.3422 4.49558 11.4406 4.46763C11.6399 4.4126 11.8324 4.36405 12.0198 4.3254C12.3942 4.24023 12.7462 4.17823 13.049 4.13138C13.6554 4.03904 14.0687 4.0215 14.0687 4.0215C14.0687 4.0215 13.9743 4.06206 13.8087 4.13272C13.6425 4.2019 13.4054 4.29354 13.1199 4.40324C12.9761 4.45552 12.8218 4.51241 12.6583 4.57237C12.4944 4.63063 12.3213 4.69161 12.1428 4.7548C11.966 4.81715 11.7844 4.88221 11.5987 4.94847C11.4172 5.0098 11.2277 5.08236 11.0376 5.15527C10.8605 5.22153 10.6765 5.30978 10.496 5.38132C10.3168 5.4629 10.0095 5.56974 9.83572 5.64399C9.62618 5.73189 9.49363 5.77942 9.36044 5.84994C7.8691 6.72022 7.20833 8.26081 6.8053 9.891C6.73376 8.3596 6.41248 6.87386 5.30696 5.77805C5.30798 5.77738 5.3095 5.77703 5.31055 5.77618C5.16082 5.63599 5.00528 5.48524 4.84517 5.32376C4.71367 5.18818 4.57468 5.05342 4.43942 4.90967C4.3006 4.77441 4.16415 4.62299 4.02498 4.49386C3.87662 4.35367 3.73013 4.21485 3.58533 4.08811C3.43916 3.95694 3.29626 3.82748 3.15692 3.70194C3.01571 3.57538 2.87925 3.45325 2.75015 3.33672C2.62222 3.21882 2.50009 3.10708 2.38852 3.00386C2.16623 2.79417 1.9814 2.61839 1.85467 2.49095C1.72909 2.36234 1.65755 2.28876 1.65755 2.28876C1.65755 2.28876 2.03232 2.46285 2.55768 2.77953C2.81965 2.93862 3.121 3.1301 3.43511 3.35172C3.59336 3.45955 3.7528 3.57777 3.91581 3.70433C3.99604 3.7682 4.07761 3.83174 4.15855 3.89596L4.38851 4.09473C4.42889 4.13103 4.4604 4.15434 4.5081 4.20085L4.61917 4.31005C4.6931 4.38261 4.76738 4.4545 4.83568 4.52878C4.97348 4.67699 5.10821 4.82433 5.23002 4.97219C5.35233 5.12005 5.47005 5.26313 5.57359 5.40557C5.59556 5.43623 5.61619 5.46415 5.63816 5.49379C5.96504 4.96318 5.97782 3.37573 4.56858 2.30784C3.03397 1.1461 0.895487 1.66735 0 1.23756C0.904182 2.62075 0.730587 3.54419 2.24956 5.06211C3.26464 6.07768 4.21261 6.14056 4.85121 5.9639C6.15008 7.21422 6.35279 9.12035 6.35346 10.9444C6.22059 10.8368 6.05911 10.7523 5.87276 10.7523C5.34707 10.7523 4.96429 11.048 4.78083 11.4697C3.6237 11.0759 2.85513 11.9913 2.78852 12.7623C2.23797 12.5576 1.53954 13.1909 1.53954 13.7411C1.53954 14.2845 1.96898 14.7243 2.50692 14.7472L11.0246 14.7622C11.0246 14.7622 11.9322 14.2729 11.9322 13.7408C11.9322 13.1831 11.4801 12.7303 10.9224 12.7303C10.845 12.7303 10.7711 12.7405 10.6996 12.7568C10.7043 12.7177 10.6021 11.0026 9.11196 11.6915C8.99613 11.1549 8.84418 10.7523 7.94887 10.7523C7.50785 10.7523 7.20921 10.9124 7.01811 11.0752C7.391 9.17824 7.96728 7.19648 9.64686 6.21618C9.66527 6.20579 9.67481 6.19182 9.68774 6.17922C10.2069 6.5957 11.1145 6.91748 12.4616 6.35806C14.4444 5.53446 14.6362 4.61493 16 3.68196C15.0093 3.73754 13.2316 2.43969 11.3701 2.92823ZM6.72822 11.3945L6.78392 11.3386C6.75582 11.3822 6.73861 11.4139 6.73861 11.4139C6.73861 11.4139 6.73298 11.403 6.72822 11.3945Z" fill="#040C22"/>
</svg>
