<svg width="16" height="16" viewBox="0 0 16 16" fill="none" xmlns="http://www.w3.org/2000/svg">
<rect width="16" height="16" fill="#E5E5E5"/>
<path d="M7.89644 3.75L8.89644 2.75H1.75C1.64806 2.75 1.5 2.94478 1.5 3.25C1.5 3.55522 1.64806 3.75 1.75 3.75H7.89644Z" fill="black"/>
<path d="M9.06594 5.68206C8.86342 5.83959 8.61223 5.92142 8.35579 5.91343C8.09934 5.90544 7.85374 5.80813 7.66142 5.6383C7.4691 5.46848 7.34213 5.23681 7.30246 4.98333C7.26279 4.72984 7.31291 4.47046 7.44416 4.25H2.18681L1.02119 8.19597C1.00713 8.25396 1.00001 8.31342 1 8.37309V15.25H9.25V8.37309C9.25001 8.27091 9.26253 8.16911 9.28728 8.06997C9.28816 8.06656 9.28909 8.06313 9.29009 8.05972L10.2688 4.74653L9.06594 5.68206ZM5 9.25H4.99953C4.9997 9.28878 4.99082 9.32707 4.97359 9.36181L4.50425 10.3005L4.71109 13.1966C4.71843 13.2993 4.70453 13.4024 4.67026 13.4996C4.63599 13.5967 4.58208 13.6857 4.5119 13.7611C4.44171 13.8365 4.35676 13.8966 4.26232 13.9377C4.16788 13.9788 4.06599 14 3.963 14H3.537C3.43401 14 3.33212 13.9788 3.23768 13.9377C3.14324 13.8966 3.05829 13.8365 2.9881 13.7611C2.91792 13.6857 2.86401 13.5967 2.82974 13.4996C2.79547 13.4024 2.78157 13.2993 2.78891 13.1966L2.99575 10.3005L2.52641 9.36181C2.50918 9.32707 2.5003 9.28878 2.50047 9.25H2.5V8.25C2.5 8.1837 2.52634 8.12011 2.57322 8.07322C2.62011 8.02634 2.6837 8 2.75 8C2.8163 8 2.87989 8.02634 2.92678 8.07322C2.97366 8.12011 3 8.1837 3 8.25V9H3.5V8.25C3.5 8.1837 3.52634 8.12011 3.57322 8.07322C3.62011 8.02634 3.6837 8 3.75 8C3.8163 8 3.87989 8.02634 3.92678 8.07322C3.97366 8.12011 4 8.1837 4 8.25V9H4.5V8.25C4.5 8.1837 4.52634 8.12011 4.57322 8.07322C4.62011 8.02634 4.6837 8 4.75 8C4.8163 8 4.87989 8.02634 4.92678 8.07322C4.97366 8.12011 5 8.1837 5 8.25V9.25ZM7.25359 13.7531C7.18322 13.8308 7.09738 13.8929 7.00158 13.9354C6.90579 13.9779 6.80215 13.9999 6.69734 14H6.3025C6.19772 14 6.0941 13.978 5.99832 13.9355C5.90255 13.893 5.81674 13.8309 5.74643 13.7532C5.67612 13.6756 5.62287 13.584 5.59012 13.4845C5.55736 13.3849 5.54582 13.2796 5.55625 13.1754L5.75 11.2375V11.1544L5.38819 10.9735C5.34381 10.9513 5.30704 10.9164 5.28255 10.8732C5.25807 10.8301 5.24698 10.7806 5.25069 10.7312C5.25906 10.6198 5.47312 8 7 8C7.0663 8 7.12989 8.02634 7.17678 8.07322C7.22366 8.12011 7.25 8.1837 7.25 8.25V11.2375L7.44375 13.1753C7.45411 13.2795 7.44254 13.3848 7.40979 13.4843C7.37704 13.5838 7.32384 13.6754 7.25359 13.7531Z" fill="black"/>
<path d="M13.5 0.75H15V3.5H13.5V0.75Z" fill="black"/>
<path d="M7.37328 1.35388L5.73044 2.25H9.5C9.54945 2.25 9.59778 2.26466 9.6389 2.29213C9.68001 2.3196 9.71206 2.35865 9.73098 2.40433C9.7499 2.45001 9.75485 2.50028 9.74521 2.54878C9.73556 2.59727 9.71175 2.64182 9.67678 2.67678L7.96528 4.38831C7.8571 4.4964 7.79421 4.64168 7.78942 4.79454C7.78464 4.94739 7.83832 5.09632 7.93954 5.21096C8.04075 5.32561 8.18187 5.39734 8.33414 5.41155C8.48641 5.42575 8.63836 5.38135 8.75903 5.28741L10.3193 4.07391C10.3809 4.02613 10.4566 4.00014 10.5346 4H11.1492C11.3747 3.99974 11.591 3.91002 11.7505 3.75051C11.91 3.591 11.9997 3.37474 12 3.14916C12.0001 3.04333 12.0422 2.94188 12.117 2.86705C12.1919 2.79222 12.2933 2.75012 12.3992 2.75H13V1.25H7.78069C7.63835 1.2501 7.49829 1.28581 7.37328 1.35388Z" fill="black"/>
<path d="M4.01721 10.5H3.48284L3.2875 13.2322C3.28506 13.2665 3.28969 13.3008 3.30112 13.3332C3.31255 13.3656 3.33052 13.3953 3.35391 13.4204C3.37731 13.4455 3.40563 13.4655 3.4371 13.4792C3.46858 13.4929 3.50254 13.5 3.53687 13.5H3.96287C3.9972 13.5 4.03116 13.4929 4.06264 13.4792C4.09411 13.4655 4.12243 13.4455 4.14583 13.4204C4.16922 13.3953 4.1872 13.3656 4.19862 13.3332C4.21005 13.3008 4.21468 13.2665 4.21224 13.2322L4.01721 10.5Z" fill="black"/>
<path d="M6.24999 11H6.74999V8.54556C6.44187 8.66297 6.18943 9.00688 5.99731 9.57222C5.88756 9.90796 5.81048 10.2535 5.76715 10.6041L6.11181 10.7764C6.15333 10.7972 6.18825 10.8291 6.21266 10.8686C6.23706 10.9081 6.24999 10.9536 6.24999 11Z" fill="black"/>
<path d="M3.40451 10H4.09551L4.34551 9.5H3.15451L3.40451 10Z" fill="black"/>
<path d="M10.1036 15.25H11.3965L10.75 14.6036L10.1036 15.25Z" fill="black"/>
<path d="M6.77374 11.5H6.22624L6.05371 13.225C6.05022 13.2598 6.05405 13.2949 6.06496 13.3281C6.07588 13.3613 6.09362 13.3918 6.11707 13.4177C6.14051 13.4436 6.16912 13.4643 6.20106 13.4785C6.233 13.4927 6.26755 13.5 6.30249 13.5H6.69749C6.73243 13.5 6.76699 13.4927 6.79893 13.4785C6.83087 13.4643 6.85948 13.4436 6.88292 13.4177C6.90636 13.3918 6.92411 13.3613 6.93502 13.3281C6.94594 13.2949 6.94977 13.2598 6.94627 13.225L6.77374 11.5Z" fill="black"/>
<path d="M9.77122 8.19592C9.75715 8.25391 9.75002 8.31337 9.75 8.37305V14.8964L10.5 14.1464V8.74995C10.5 8.68365 10.5263 8.62006 10.5732 8.57317C10.6201 8.52629 10.6837 8.49995 10.75 8.49995C10.8163 8.49995 10.8799 8.52629 10.9268 8.57317C10.9737 8.62006 11 8.68365 11 8.74995V14.1464L11.75 14.8964V8.39395C11.75 8.32235 11.7398 8.25111 11.7195 8.18242L10.7495 4.88417L9.77122 8.19592Z" fill="black"/>
</svg>
