<svg width="16" height="16" viewBox="0 0 16 16" fill="none" xmlns="http://www.w3.org/2000/svg">
<rect width="16" height="16" fill="#E5E5E5"/>
<g clip-path="url(#clip0_20_256)">
<path d="M8.08352 4.31734L7.4782 0.284C7.4542 0.12 7.31351 0 7.14886 0C7.14551 0 7.14151 0 7.13751 0C6.96817 0.00534375 6.83017 0.136656 6.81686 0.305344L6.52486 3.80734C6.50686 4.02334 6.12351 4.02334 6.10551 3.80734L5.8142 0.305344C5.79951 0.132656 5.65551 0 5.4822 0C5.30885 0 5.16419 0.132656 5.15019 0.305344L4.85819 3.80734C4.84019 4.02334 4.45685 4.02334 4.43885 3.80734L4.1475 0.305344C4.1335 0.137344 3.9955 0.006 3.82616 0C3.82216 0 3.81881 0 3.8155 0C3.65084 0 3.51016 0.12 3.48616 0.284L2.8815 4.31734C2.7035 5.49934 3.34484 6.63 4.42616 7.10134L3.9115 14.3147C3.88085 14.7487 4.03285 15.18 4.3295 15.4987C4.6255 15.8173 5.04485 16 5.48085 16H5.48351C5.91885 16 6.33885 15.8173 6.63551 15.4987C6.93217 15.18 7.08417 14.7487 7.05351 14.3147L6.53886 7.10134C7.6202 6.63 8.26152 5.49934 8.08352 4.31734Z" fill="#040C22"/>
<path d="M13.0077 0.0613596C12.9197 -0.00129666 12.8064 -0.0159842 12.7044 0.0193596C12.6757 0.0293596 9.8157 1.08002 9.8157 4.33336C9.8157 6.67536 10.5777 7.85802 11.0064 8.33802L10.5797 8.76467C10.5251 8.81933 10.4911 8.89067 10.4837 8.96733L9.95636 14.2413C9.91102 14.69 10.0584 15.1393 10.361 15.474C10.6637 15.8087 11.0977 16 11.5484 16C12.4304 16 13.1484 15.282 13.1484 14.4V0.33336C13.1491 0.224672 13.0964 0.124016 13.0077 0.0613596Z" fill="#040C22"/>
</g>
<defs>
<clipPath id="clip0_20_256">
<rect width="16" height="16" fill="white"/>
</clipPath>
</defs>
</svg>
