<svg width="24" height="24" viewBox="0 0 24 24" fill="none" xmlns="http://www.w3.org/2000/svg">
<rect width="24" height="24" fill="#E5E5E5"/>
<g clip-path="url(#clip0_20_256)">
<path d="M17.1936 13.0096C17.1963 13.0021 19.1792 8.37067 19.0757 8.3168C18.9755 8.264 17.6939 10.8832 16.76 12.6565L16.4667 12.5024C17.2805 10.6661 18.5445 8.03787 18.4411 7.98507C18.3408 7.93227 16.9776 10.5072 15.9856 12.2512L15.6923 12.0976C16.5627 10.2896 17.9072 7.70507 17.8064 7.65227C17.7051 7.59947 16.2576 10.1307 15.2085 11.8443L14.9136 11.6891C15.8427 9.91253 17.2693 7.3712 17.1691 7.3184C17.0672 7.26453 14.9547 10.6389 14.3797 11.5339C13.8789 12.3163 13.9125 13.4032 14.5531 13.9867C13.6763 15.52 12.8011 17.0517 11.9248 18.5845C11.0256 17.0533 10.1264 15.5211 9.22667 13.9899C10.2736 13.1792 10.4485 11.5701 9.58987 10.3131C8.68907 8.9696 6.80587 7.47787 5.68427 8.04107C4.59787 8.66987 4.81067 11.0629 5.44053 12.5531C6.02027 13.96 7.46293 14.6976 8.7136 14.2667C9.592 16.0427 10.4699 17.8181 11.3472 19.5936C10.9632 20.2661 10.5792 20.9381 10.1947 21.6112C5.65387 20.7621 2.21547 16.7861 2.21547 12C2.21653 6.59627 6.59627 2.216 12 2.216C17.4037 2.216 21.7835 6.59573 21.7835 11.9995C21.7835 16.8176 18.2981 20.8123 13.712 21.624C13.3131 20.9451 12.9147 20.2667 12.5168 19.5877C13.3701 17.8117 14.2219 16.0357 15.0752 14.2587C15.9093 14.4693 16.7877 13.9483 17.1909 13.0075C17.6133 12.0229 17.1925 13.0096 17.1936 13.0096ZM12.9008 22.7312C12.6016 22.7563 12.304 22.7771 12 22.7771C11.6661 22.7771 11.3365 22.7568 11.0101 22.7269C10.824 23.1141 10.6379 23.5008 10.4528 23.8885C10.9605 23.9547 11.4752 24 12 24C12.5008 24 12.9925 23.9589 13.4779 23.8992C13.2859 23.5104 13.0933 23.1211 12.9008 22.7312ZM12 0C5.38347 0 0 5.38347 0 12C0 17.5968 3.85653 22.2971 9.04853 23.6176C9.25813 23.2507 9.4672 22.8848 9.6768 22.5184C4.848 21.4523 1.2224 17.144 1.2224 12C1.2224 6.05707 6.05707 1.22293 11.9995 1.22293C17.9419 1.22293 22.7765 6.0576 22.7765 12C22.7765 17.1707 19.1136 21.4997 14.2475 22.5371C14.4613 22.9024 14.6763 23.2677 14.8907 23.6336C20.1131 22.3339 24 17.6187 24 12C24 5.38347 18.6165 0 12 0ZM12.4213 21.7627C12.2613 21.4379 12.1008 21.1136 11.9403 20.7888C11.7856 21.112 11.6304 21.4347 11.4757 21.7568C11.6507 21.7659 11.8235 21.7829 12 21.7829C12.1424 21.7835 12.28 21.7675 12.4213 21.7627Z" fill="black"/>
</g>
<defs>
<clipPath id="clip0_20_256">
<rect width="24" height="24" fill="white"/>
</clipPath>
</defs>
</svg>
