<svg width="24" height="24" viewBox="0 0 24 24" fill="none" xmlns="http://www.w3.org/2000/svg">
<rect width="24" height="24" fill="#E5E5E5"/>
<rect y="8.78458" width="17.5692" height="17.5692" rx="4" transform="rotate(-30 0 8.78458)" fill="#0BB8E4"/>
<path d="M10.1118 15.373H11.0581L11.3521 13.5886H12.3186L12.4775 12.6423H11.5076L11.7441 11.1824H12.7208L12.8763 10.2361H11.8996L12.1936 8.45175H11.2473L10.9533 10.2361H9.46634L9.76036 8.45175H8.8141L8.52008 10.2361H7.55017L7.39471 11.1824H8.36463L8.12806 12.6423H7.15139L6.99255 13.5886H7.97261L7.67859 15.373H8.62485L8.91887 13.5886H10.4058L10.1118 15.373ZM9.07432 12.6423L9.31089 11.1824H10.7979L10.5613 12.6423H9.07432Z" fill="white"/>
<path d="M16.3411 8.45175H15.1481L13.428 9.55685V10.7059L15.0468 9.67175H15.0873V15.373H16.3411V8.45175Z" fill="white"/>
</svg>
