<svg width="16" height="16" viewBox="0 0 16 16" fill="none" xmlns="http://www.w3.org/2000/svg">
<rect width="16" height="16" fill="#E5E5E5"/>
<path d="M8.79986 1.3295L7.89383 3.78861C8.4902 3.58223 9.11463 3.45133 9.75553 3.40144L8.79986 1.3295Z" fill="#040C22"/>
<path d="M6.66661 4.34275L7.89816 1.00001L4.78201 2.445C1.52096 3.95717 0.0947839 7.84096 1.59918 11.1073L2.86848 13.5346L2.86446 10.8734C2.86142 8.87441 3.63702 6.99387 5.0484 5.57819C5.53666 5.0884 6.08087 4.6747 6.66661 4.34275Z" fill="#040C22"/>
<path d="M13.7773 4.33304C10.2484 4.37385 8.1163 3.92864 5.7284 6.25609C4.49808 7.49016 3.82198 9.12945 3.82461 10.872L3.82986 14.3328L13.7773 4.33304Z" fill="#040C22"/>
<path d="M12.5567 13.077C13.787 11.8429 14.4632 10.2036 14.4605 8.46101L14.4553 5.0125L4.52005 15L7.94654 14.9948C9.68913 14.9921 11.3264 14.311 12.5567 13.077Z" fill="#040C22"/>
</svg>
