<svg width="20" height="20" viewBox="0 0 20 20" fill="none" xmlns="http://www.w3.org/2000/svg">
<g clip-path="url(#clip0_20_256)">
<path d="M14.6154 7.11538H20V4.61538C20 3.0248 18.706 1.73077 17.1154 1.73077H2.88461C1.29402 1.73077 0 3.0248 0 4.61538V15.3846C0 16.9752 1.29402 18.2692 2.88461 18.2692H17.1154C18.706 18.2692 20 16.9752 20 15.3846V12.8846H14.6154C13.0248 12.8846 11.7308 11.5906 11.7308 9.99999C11.7308 8.40941 13.0248 7.11538 14.6154 7.11538Z" fill="#0BB8E4"/>
<path d="M14.6154 8.26923C13.6611 8.26923 12.8846 9.04563 12.8846 10C12.8846 10.9544 13.661 11.7308 14.6154 11.7308H20V8.26926H14.6154V8.26923ZM15.3846 10.5769H14.6154C14.2968 10.5769 14.0385 10.3186 14.0385 10C14.0385 9.68141 14.2968 9.42309 14.6154 9.42309H15.3846C15.7033 9.42309 15.9616 9.68141 15.9616 10C15.9616 10.3186 15.7033 10.5769 15.3846 10.5769Z" fill="#0BB8E4"/>
</g>
<defs>
<clipPath id="clip0_20_256">
<rect width="20" height="20" fill="white"/>
</clipPath>
</defs>
</svg>
